<svg width="659" height="347" viewBox="0 0 659 347" fill="none" xmlns="http://www.w3.org/2000/svg">
<g clip-path="url(#clip0_436_112)">
<path d="M319.962 86.275L159.996 -0.0695801L0.0307617 86.275V163.786L37.0426 143.707V106.255L159.996 39.8894L282.95 106.255V121.122L319.962 101.039V86.275Z" fill="#191C1C"/>
<path d="M282.95 238.978L159.996 305.343L37.0425 238.978V205.94L91.0169 176.656L135.794 200.955L176.433 178.903L131.651 154.607L91.0123 132.551L50.3738 154.607L37.056 161.834L0.0439453 181.917V258.954L160.009 345.298L319.975 258.954V181.443L282.963 201.526L282.95 238.978Z" fill="#191C1C"/>
<path d="M282.95 139.278L193.17 188.009L152.531 210.061L193.17 232.119L233.808 210.061L282.937 183.404L319.949 163.321V119.199L282.95 139.278Z" fill="#4DB8F4"/>
</g>
<path d="M337.826 303V65H384.406V303H337.826ZM438.941 65H520.541V105.8H455.261L454.241 107.84L508.641 207.12C519.748 227.067 525.301 242.253 525.301 252.68C525.301 275.573 517.708 292.347 502.521 303H412.421V263.56H482.801L483.821 261.52L422.621 151.7C413.781 135.833 409.361 122.913 409.361 112.94C409.361 89.3667 419.221 73.3867 438.941 65ZM570.758 65H652.358V105.8H587.078L586.058 107.84L640.458 207.12C651.564 227.067 657.118 242.253 657.118 252.68C657.118 275.573 649.524 292.347 634.338 303H544.238V263.56H614.618L615.638 261.52L554.438 151.7C545.598 135.833 541.178 122.913 541.178 112.94C541.178 89.3667 551.038 73.3867 570.758 65Z" fill="#191C1C"/>
<defs>
<clipPath id="clip0_436_112">
<rect width="320" height="347" fill="white"/>
</clipPath>
</defs>
</svg>
