<svg width="189" height="35" viewBox="0 0 189 35" fill="none" xmlns="http://www.w3.org/2000/svg">
<path d="M187.896 10.8907C185.672 6.53651 179.13 10.3855 181.354 14.7136C181.578 15.1459 181.047 15.8542 180.568 16.0834C180.318 15.8803 179.99 15.448 179.912 15.323C179.307 14.5365 178.724 13.7761 178.167 12.9428C175.969 9.70318 173.646 6.20838 169.63 5.16672C160.761 2.83859 154.927 12.8178 147.521 15.5521C144.818 16.5626 138 17.9584 136.052 14.9688C135.016 13.4011 135.12 10.8386 134.412 9.06776C133.729 7.27088 132.745 5.62505 131.354 4.2813C126.38 -0.479119 118.724 0.786508 113.292 4.02609C105.662 8.56255 99.698 15.474 91.8178 19.6771C89.1616 21.099 83.7345 23.7084 81.1043 20.9948C79.7918 19.6303 79.3595 17.2969 78.6303 15.5782C77.797 13.6511 76.6824 11.8803 75.1199 10.4844C69.0313 5.01568 60.9688 7.88026 55.3595 12.4115C53.8178 13.6511 52.3543 15.0209 50.8907 16.3594C49.2449 17.8542 47.0991 19.0209 45.5313 20.5417C45.5313 19.9063 45.4324 19.198 45.4063 18.5625C45.3803 16.5625 45.5105 14.5626 45.3074 12.5886C44.3699 3.01567 35.0261 -2.38016 26.7397 3.14067C22.2397 6.13026 18.6043 10.4844 14.8126 14.2865C10.3178 18.8178 5.79177 23.3282 1.29697 27.8594C-2.16657 31.3282 3.19281 36.698 6.65114 33.2292C10.7188 29.1511 14.7866 25.0469 18.8803 20.9688C22.5157 17.323 26.0053 13.0678 30.172 10.0053C33.3074 7.70318 36.7397 7.90109 37.6772 12.2344C38.5105 16.0053 37.2709 19.9584 38.4845 23.7084C41.948 34.5469 53.2397 24.4636 57.7605 20.3907C60.3647 18.0313 63.6459 14.7136 67.4897 15.0678C71.5574 15.4271 72.1355 20.2136 73.5782 23.224C77.8959 32.2136 88.4324 30.1146 95.6303 26.2657C103.714 21.9584 109.729 14.5886 117.74 10.2605C119.886 9.0938 123.094 7.95318 125.417 9.29692C128.677 11.1719 127.943 16.7188 130.016 19.6303C135.12 26.8959 147.698 24.5157 154.141 20.7657C156.443 19.4271 158.464 17.6511 160.583 16.0313C162.25 14.7396 164.297 12.8907 166.448 12.5365C170.109 11.9532 172.636 18.8178 174.807 21.0209C181.703 28.0626 192.115 19.1459 187.896 10.8907Z" fill="#4DB8F4" fill-opacity="0.9"/>
</svg>
